<?xml version="1.0"?>
<svg xmlns="http://www.w3.org/2000/svg" height="512px" viewBox="-97 -21 682 682.66535" width="512px" class=""><g><path d="m469.214844 509.914062h-.328125c-9.195313 0-16.675781-7.480468-16.675781-16.671874v-.601563c0-9.195313 7.480468-16.675781 16.675781-16.675781h1.25c3.953125 0 7.695312-1.878906 10.058593-5.050782 2.132813-2.871093 2.933594-6.515624 2.226563-9.992187-6.195313-30.386719-21.519531-57.710937-44.300781-79.011719-2.539063-2.382812-5.988282-3.625-9.46875-3.367187-3.625.261719-6.96875 2.082031-9.144532 4.988281-.25.332031-.480468.671875-.695312 1.027344-3.320312 5.484375-9.585938 8.613281-15.972656 7.945312-2.316406-.238281-4.539063-.964844-6.59375-2.152344l-.539063-.308593c-3.855469-2.226563-6.617187-5.820313-7.769531-10.121094s-.554688-8.792969 1.671875-12.652344c.035156-.058593.066406-.121093.101563-.179687 1.839843-3.316406 2.085937-7.300782.65625-10.816406-1.386719-3.414063-4.226563-6.050782-7.722657-7.191407-8.183593-2.675781-16.566406-4.601562-25.070312-5.820312v-248c0-6.90625-5.605469-12.511719-12.519531-12.511719h-54.96875v-24.117188c0-6.914062-5.605469-12.519531-12.511719-12.519531h-43.886719c-5.753906-26.332031-29.246094-46.113281-57.277344-46.113281s-51.523437 19.78125-57.269531 46.113281h-43.886719c-6.914062 0-12.519531 5.605469-12.519531 12.519531v24.117188h-54.964844c-6.914062 0-12.519531 5.605469-12.519531 12.511719v448.78125c0 6.914062 5.605469 12.519531 12.519531 12.519531h194.582031c7.480469 15.238281 17.574219 29.164062 30.007813 41.242188 2.578125 2.507812 6.136719 3.800781 9.738281 3.511718 3.902344-.3125 7.4375-2.4375 9.546875-5.722656 4.808594-7.484375 14.613281-9.859375 22.328125-5.40625l.539063.308594c3.855469 2.226562 6.617187 5.824218 7.769531 10.128906 1.152344 4.300781.558594 8.792969-1.671875 12.660156l-.183594.316406c-.035156.058594-.066406.117188-.097656.175782-1.75 3.140625-2.058594 6.898437-.855469 10.289062 1.207032 3.386719 3.824219 6.109375 7.15625 7.441406.175782.074219.351563.136719.527344.195313 15.78125 5.507813 32.316406 8.296875 49.132812 8.296875 14.011719 0 27.898438-1.949219 41.273438-5.792969.042969-.015625.09375-.023437.136719-.039062 3.632812-1.089844 6.585937-3.773438 8.011719-7.289063 1.425781-3.511718 1.1875-7.496094-.652344-10.8125-.03125-.050781-.0625-.105468-.09375-.164062-4.570313-7.945313-1.832032-18.140625 6.109375-22.726563.003906-.003906.007812-.003906.015625-.007812l.519531-.304688c3.859375-2.226562 8.351563-2.816406 12.652344-1.664062 4.300781 1.152343 7.902343 3.910156 10.121093 7.769531l.703126 1.214844c.136718.234375.28125.464844.429687.6875 2 3 5.210937 5 8.785156 5.476562 3.570313.476563 7.171875-.613281 9.882813-2.96875 23.695312-20.636718 40.03125-47.617187 47.230468-78.035156.035157-.140625.070313-.285156.09375-.429688.738282-3.679687-.21875-7.507812-2.597656-10.410156-2.382812-2.898437-5.945312-4.589844-9.695312-4.589844zm-292.804688-484.875c14.101563 0 26.191406 8.734376 31.167969 21.074219h-62.335937c4.976562-12.339843 17.066406-21.074219 31.167968-21.074219zm-88.640625 46.113282h177.285157v23.121094c-.03125.324218-.054688.65625-.054688.988281 0 .339843.023438.671875.054688.996093v18.683594h-30.011719v-16.660156c0-6.914062-5.605469-12.519531-12.519531-12.519531-6.910157 0-12.515626 5.605469-12.515626 12.519531v16.660156h-67.191406v-16.660156c0-6.914062-5.605468-12.519531-12.519531-12.519531s-12.519531 5.605469-12.519531 12.519531v16.660156h-30.007813zm-67.480469 460.371094v-423.742188h42.445313v19.679688c0 6.914062 5.605469 12.519531 12.519531 12.519531h202.320313c6.90625 0 12.511719-5.605469 12.511719-12.519531v-19.679688h42.449218v234.011719c-13.308594.332031-26.457031 2.402343-39.152344 6.203125-.117187.039062-.238281.078125-.359374.117187-3.53125 1.179688-6.367188 3.878907-7.722657 7.351563-1.277343 3.285156-1.105469 6.964844.457031 10.109375 3.878907 7.84375.980469 17.414062-6.609374 21.792969l-.550782.316406c-7.796875 4.503906-17.652344 2.058594-22.425781-5.570313-1.878906-3.003906-4.964844-5.085937-8.476563-5.699219-3.761718-.65625-7.632812.445313-10.484374 2.984376-22.722657 20.214843-38.542969 46.421874-45.757813 75.800781-.042969.171875-.082031.351562-.117187.527343-.691407 3.460938.113281 7.074219 2.214843 9.917969 2.101563 2.839844 5.320313 4.667969 8.835938 5.019531.09375.007813.1875.019532.285156.023438 8.601563.664062 15.34375 7.953125 15.34375 16.597656v.640625c0 9.066407-7.097656 16.375-16.160156 16.632813-3.664063.109375-7.121094 1.820312-9.417969 4.6875-2.304688 2.875-3.230469 6.632812-2.53125 10.238281.796875 4.074219 1.761719 8.082031 2.882812 12.042969h-172.5zm406.730469 44.023437c-4.660156-3.980469-10.183593-6.902344-16.277343-8.53125-10.761719-2.886719-22.003907-1.40625-31.664063 4.175781l-.523437.300782c-15.011719 8.667968-22.597657 25.347656-20.484376 41.5625-7.164062 1.269531-14.449218 1.90625-21.777343 1.90625-9.804688 0-19.488281-1.132813-28.910157-3.390626.921876-5.730468.632813-11.648437-.914062-17.425781-2.886719-10.765625-9.785156-19.761719-19.4375-25.328125l-.539062-.3125c-14.621094-8.441406-32.253907-7.074218-45.183594 2.226563-10.980469-13.011719-19.09375-28.015625-23.9375-44.265625 15.171875-6.230469 25.679687-21.085938 25.679687-38.546875v-.632813c0-16.425781-9.730469-30.902344-23.851562-37.652344 5.613281-15.992187 14.429687-30.589843 25.972656-43.03125 12.972656 9.824219 30.96875 11.410157 45.945313 2.769532l.550781-.320313c14.449219-8.34375 22.105469-24.210937 20.660156-39.972656 16.574219-3.25 33.949219-3.066406 50.421875.511719-.8125 5.542968-.484375 11.234375 1.003906 16.804687 2.882813 10.761719 9.785156 19.761719 19.4375 25.332031l.539063.3125c5.125 2.960938 10.691406 4.765626 16.542969 5.367188 10.640624 1.109375 21.148437-1.996094 29.4375-8.246094 11.351562 12.933594 19.804687 27.933594 24.945312 44.265625-16.015625 5.832031-27.484375 21.207031-27.484375 39.214844v.601563c0 17.539062 10.882813 32.582031 26.253906 38.738281-5.667969 16.207031-14.613281 30.96875-26.40625 43.566406zm0 0" data-original="#000000" class="active-path" data-old_color="#000000" fill="#FFFFFF"/><path d="m372.625 438.082031c-5.019531 4.75-5.238281 12.675781-.488281 17.695313 8.476562 8.957031 13.152343 20.625 13.152343 32.839844 0 26.328124-21.417968 47.742187-47.746093 47.742187-26.324219 0-47.738281-21.414063-47.738281-47.742187 0-11.8125 4.34375-23.144532 12.234374-31.917969 4.625-5.136719 4.207032-13.050781-.929687-17.675781s-13.054687-4.210938-17.683594.933593c-12.03125 13.371094-18.660156 30.65625-18.660156 48.660157 0 40.132812 32.644531 72.78125 72.777344 72.78125 40.132812 0 72.777343-32.648438 72.777343-72.78125 0-18.640626-7.097656-36.421876-20-50.046876-4.75-5.019531-12.667968-5.242187-17.695312-.488281zm0 0" data-original="#000000" class="active-path" data-old_color="#000000" fill="#FFFFFF"/><path d="m328.71875 440.351562.347656.261719c2.265625 1.730469 4.933594 2.566407 7.578125 2.566407 3.773438 0 7.5-1.699219 9.964844-4.929688 4.191406-5.496094 3.132813-13.351562-2.367187-17.546875l-.339844-.257813c-5.503906-4.199218-13.355469-3.136718-17.550782 2.363282-4.1875 5.496094-3.128906 13.347656 2.367188 17.542968zm0 0" data-original="#000000" class="active-path" data-old_color="#000000" fill="#FFFFFF"/><path d="m130.792969 203.445312h61.746093c6.914063 0 12.519532-5.605468 12.519532-12.519531 0-6.914062-5.605469-12.519531-12.519532-12.519531h-61.746093c-6.914063 0-12.519531 5.605469-12.519531 12.519531 0 6.914063 5.605468 12.519531 12.519531 12.519531zm0 0" data-original="#000000" class="active-path" data-old_color="#000000" fill="#FFFFFF"/><path d="m71.582031 266.765625h205.992188c6.914062 0 12.519531-5.605469 12.519531-12.519531 0-6.914063-5.605469-12.519532-12.519531-12.519532h-205.992188c-6.914062 0-12.519531 5.605469-12.519531 12.519532 0 6.914062 5.605469 12.519531 12.519531 12.519531zm0 0" data-original="#000000" class="active-path" data-old_color="#000000" fill="#FFFFFF"/><path d="m195.144531 315.738281c0-6.910156-5.605469-12.519531-12.519531-12.519531h-111.042969c-6.914062 0-12.519531 5.609375-12.519531 12.519531 0 6.914063 5.605469 12.519531 12.519531 12.519531h111.042969c6.914062 0 12.519531-5.605468 12.519531-12.519531zm0 0" data-original="#000000" class="active-path" data-old_color="#000000" fill="#FFFFFF"/><path d="m71.582031 203.445312h21.523438c6.914062 0 12.519531-5.605468 12.519531-12.519531 0-6.914062-5.605469-12.519531-12.519531-12.519531h-21.523438c-6.910156 0-12.519531 5.605469-12.519531 12.519531 0 6.914063 5.605469 12.519531 12.519531 12.519531zm0 0" data-original="#000000" class="active-path" data-old_color="#000000" fill="#FFFFFF"/><path d="m239.421875 304.589844-.34375-.265625c-5.507813-4.179688-13.359375-3.097657-17.539063 2.410156-4.179687 5.507813-3.105468 13.359375 2.402344 17.539063l.34375.261718c2.261719 1.714844 4.921875 2.542969 7.558594 2.542969 3.78125 0 7.519531-1.703125 9.980469-4.949219 4.179687-5.507812 3.101562-13.359375-2.402344-17.539062zm0 0" data-original="#000000" class="active-path" data-old_color="#000000" fill="#FFFFFF"/><path d="m71.582031 418.140625c-6.914062 0-12.519531 5.605469-12.519531 12.519531v57.960938c0 6.910156 5.605469 12.519531 12.519531 12.519531 6.914063 0 12.519531-5.609375 12.519531-12.519531v-57.960938c0-6.914062-5.605468-12.519531-12.519531-12.519531zm0 0" data-original="#000000" class="active-path" data-old_color="#000000" fill="#FFFFFF"/></g> </svg>
